Coordinates
version=1
nRows=7
nColumns=40
inDegrees=yes

Units are S.I. units (second, meters, Newtons, ...)
Angles are in degrees.

endheader
time	pelvis_tilt	pelvis_list	pelvis_rotation	pelvis_tx	pelvis_ty	pelvis_tz	hip_flexion_r	hip_adduction_r	hip_rotation_r	knee_angle_r	knee_angle_r_beta	ankle_angle_r	subtalar_angle_r	mtp_angle_r	hip_flexion_l	hip_adduction_l	hip_rotation_l	knee_angle_l	knee_angle_l_beta	ankle_angle_l	subtalar_angle_l	mtp_angle_l	lumbar_extension	lumbar_bending	lumbar_rotation	arm_flex_r	arm_add_r	arm_rot_r	elbow_flex_r	pro_sup_r	wrist_flex_r	wrist_dev_r	arm_flex_l	arm_add_l	arm_rot_l	elbow_flex_l	pro_sup_l	wrist_flex_l	wrist_dev_l
     27.83250000	     -5.54611335	     -4.48059434	      9.71520300	      1.00579471	      0.92343484	      0.48096554	      3.27978864	      1.61862731	    -12.92613140	     18.55228625	     18.55228625	     17.63310312	     -4.64469099	     -0.59673609	     25.87379409	     -3.92206575	      5.76131385	     23.80171603	     23.80171603	      7.60763814	     -8.62470773	      0.57329826	     -8.08049895	      1.77566991	      3.66662641	     59.08977637	    -13.35351076	     -0.59243517	     98.21959719	     44.60498608	      0.00000000	      0.00000000	     -6.80376163	    -12.42171815	     10.69523632	     37.21085896	     44.82575349	      0.00000000	      0.00000000
     27.85771429	     -5.63248021	     -4.48833254	      9.34430482	      1.00553700	      0.92426676	      0.47608381	      3.05241069	      1.26543193	    -12.78116209	     18.57354186	     18.57354186	     17.30409385	     -4.34727500	     -0.59491392	     25.42504693	     -3.76764401	      5.39591874	     23.66316396	     23.66316396	      8.01680460	     -8.66013540	      0.50208423	     -8.00212860	      1.81433948	      3.85657706	     58.91881823	    -13.61845584	     -0.72460277	     97.49451128	     44.63895056	      0.00000000	      0.00000000	     -6.58047850	    -12.57594743	     10.76108747	     37.33537979	     44.83353184	      0.00000000	      0.00000000
     27.88292857	     -5.73481953	     -4.48799053	      8.96822513	      1.00520781	      0.92509330	      0.47127078	      2.88124183	      0.89145571	    -12.61594782	     18.64606119	     18.64606119	     16.96718785	     -4.03278096	     -0.62406724	     24.97648743	     -3.61158920	      4.98610729	     23.48616942	     23.48616942	      8.41723304	     -8.61813900	      0.40460087	     -7.92573285	      1.86313988	      3.97585078	     58.67737122	    -13.74933259	     -0.83428122	     96.54582703	     44.67729036	      0.00000000	      0.00000000	     -6.31616165	    -12.70050673	     10.83850844	     37.47202879	     44.83833267	      0.00000000	      0.00000000
     27.90814286	     -5.82572939	     -4.52145485	      8.59596313	      1.00484535	      0.92586335	      0.46654810	      2.73240933	      0.53907776	    -12.49248061	     18.74879481	     18.74879481	     16.53235780	     -3.68692822	     -1.02405885	     24.53251495	     -3.51256623	      4.51493546	     23.31718224	     23.31718224	      8.81772920	     -8.43987094	      0.27187923	     -7.79459279	      1.99580011	      3.70854255	     58.80285641	    -13.27174072	     -0.90556966	     94.29509020	     44.77681270	      0.00000000	      0.00000000	     -6.25924358	    -12.99104661	     11.34927212	     37.77716749	     44.83250148	      0.00000000	      0.00000000
     27.93335714	     -5.90704284	     -4.50411358	      8.20622508	      1.00450222	      0.92670446	      0.46186099	      2.63906012	      0.14128915	    -12.21804464	     18.97707333	     18.97707333	     16.17464326	     -3.55831803	     -1.10209971	     23.99005821	     -3.35017230	      4.06983356	     23.00502958	     23.00502958	      9.13667864	     -8.35855688	      0.19400721	     -7.71174427	      2.06290344	      3.89633427	     58.37715017	    -13.50631441	     -1.04455476	     93.09320973	     44.82399289	      0.00000000	      0.00000000	     -5.85299217	    -13.11173010	     11.38056660	     38.10798399	     44.84901514	      0.00000000	      0.00000000
     27.95857143	     -5.96811816	     -4.48326955	      7.80518179	      1.00417269	      0.92751963	      0.45719783	      2.60977281	     -0.27278966	    -11.91542750	     19.35725249	     19.35725249	     15.81002537	     -3.55191239	     -1.25219787	     23.42637445	     -3.18649707	      3.58726056	     22.68840172	     22.68840172	      9.41899559	     -8.28841621	      0.11845676	     -7.61912907	      2.15954208	      4.00139669	     57.87368879	    -13.61422670	     -1.19428342	     91.53275350	     44.88132018	      0.00000000	      0.00000000	     -5.40307572	    -13.21427613	     11.46130837	     38.46132644	     44.85868623	      0.00000000	      0.00000000
     27.98378571	     -5.99391061	     -4.51654510	      7.40932183	      1.00379475	      0.92824390	      0.45256094	      2.64627353	     -0.61686387	    -11.53999408	     19.86892673	     19.86892673	     15.21272494	     -3.90406156	     -1.93347482	     22.90950659	     -3.06447208	      3.18754516	     22.49707866	     22.49707866	      9.67880671	     -8.29064422	     -0.04932039	     -7.52710197	      2.39201392	      3.68622697	     57.75743773	    -12.94163565	     -1.35590642	     88.26175357	     45.00234164	      0.00000000	      0.00000000	     -5.19710455	    -13.44354431	     11.96220644	     39.06583817	     44.84543193	      0.00000000	      0.00000000
